<svg xmlns="http://www.w3.org/2000/svg" viewBox="0 0 512.003 512.003"><path d="M316.705 238.201h165.277v273.802H316.705zM30.023 238.201H195.3v273.802H30.023z"/><path d="M381.487 92.982c12.941-19.021 14.201-44.702 1.13-65.343-17.54-27.702-54.362-35.972-82.063-18.431-7.01 4.44-18.711 14.821-39.292 53.532-1.84 3.46-3.6 6.87-5.26 10.14-1.66-3.27-3.42-6.68-5.26-10.14-20.581-38.711-32.282-49.092-39.292-53.532-27.701-17.541-64.523-9.27-82.064 18.431-13.071 20.641-11.811 46.322 1.13 65.343H12.481v115.215h182.818V91.033c-14.881-1.45-26.721-3.68-31.431-6.67-8.85-5.6-13.701-15.181-13.701-24.951 0-5.39 1.47-10.84 4.56-15.721 4.22-6.65 10.771-11.26 18.451-12.991 7.68-1.72 15.571-.35 22.231 3.86 8.26 5.23 23.861 31.361 37.152 58.423-2.42-.04-4.85-.09-7.26-.16v419.179h61.403V92.813c-2.41.07-4.84.12-7.26.16 13.301-27.061 28.891-53.182 37.152-58.413 4.78-3.03 10.2-4.58 15.721-4.58 2.16 0 4.35.24 6.51.72 7.68 1.73 14.231 6.34 18.451 12.991 8.69 13.731 4.59 31.981-9.14 40.672-4.7 2.98-16.541 5.21-31.431 6.66v117.175h182.818V92.982H381.487z"/></svg>
