<svg xmlns="http://www.w3.org/2000/svg" viewBox="0 0 28.092 28.092"><path d="M9.717 20.67l-1.094-1.775-2.31.415 3.038-5.388H3.427v14.17h10.094v-14.17zM26.331 7.16h-6.703a8.227 8.227 0 001.052-.637c1.192-.854 1.825-1.936 1.823-3.01 0-.881-.417-2.143-1.023-2.669A3.445 3.445 0 0019.209 0c-.918 0-1.771.315-2.502.805-1.099.736-1.959 2.33-2.572 3.546l-.092.179c-.224-.469-.486-1.408-.783-1.836-.52-.742-1.145-1.398-1.879-1.889C10.652.315 9.8 0 8.883 0c-.914.003-1.751.386-2.377.977-.623.585-1.059 1.902-1.063 2.843a3.051 3.051 0 00.487 1.647c.416.655 1.075 1.226 1.985 1.693H1.744l.014 5.635h11.588V7.16h1.412v5.635h11.59l-.017-5.635zM8.315 5.398c-.465-.294-.751-.589-.919-.854-.163-.263-.22-.725-.22-.952-.004-.379.185-1.044.521-1.356.328-.313.774-.506 1.174-.506h.012c.515.004 1.025.176 1.539.515.765.505 1.486 1.878 1.987 2.884a7.69 7.69 0 01.597 1.57c-2.321-.24-3.821-.752-4.691-1.301zm7.933-1.225c.418-.599.911-1.587 1.422-1.928.508-.339 1.024-.511 1.539-.515h.005c.429 0 .842.168 1.123.417.282.253.433.716.433 1.042-.006.385-.205 1.271-1.104 1.928-.853.622-2.334 1.259-4.611 1.705a7.92 7.92 0 011.193-2.649zM21.791 19.287l-2.309-.392-1.09 1.796-3.755-6.678v14.079H24.68v-14.17h-5.924z"/></svg>